<svg id="colored" xmlns="http://www.w3.org/2000/svg" viewBox="0 0 311.17 377.11"><defs><style>.cls-1{fill:#104c36;}.cls-2{fill:#009253;}</style></defs><path class="cls-1" d="M320.1,225.47c42.38,35,52.22,95.4,51.69,150.58-56,18.62-164.09-4.57-182.36-60.78-8.46-26-9.38-45.3,14-79.35l103.77,89.2c-30.71-29.1-65.7-70.33-96.59-99.6l.06-.05h-69.9V411.76q0,62.1,62.1,62.1H451.23V225.47Z" transform="translate(-140.74 -225.47)"/><path class="cls-2" d="M143.88,494.28q6.44.08,9.08.08,3.3,0,8.79-.08l-1.23,17.55c-.24,3.31-.43,6.41-.55,9.3s-.18,4.89-.18,6a25.6,25.6,0,0,0,.45,5.24,8.28,8.28,0,0,0,1.65,3.58,7.3,7.3,0,0,0,3.32,2.2,13.27,13.27,0,0,0,4.44.75,12.37,12.37,0,0,0,3.71-.54,8.88,8.88,0,0,0,2.44-1.23,8.41,8.41,0,0,0,1.65-1.72,12.12,12.12,0,0,0,1.53-2.95,18.19,18.19,0,0,0,1-4.33c.24-1.81.58-5.9,1-12.3q.54-8.16.83-15,.24-6.58.45-6.59h18.21l-2,29.33c0,.55,0,1,0,1.36a61.33,61.33,0,0,1-1.06,12.12,16.09,16.09,0,0,1-2.95,6.14,18.74,18.74,0,0,1-6,4.68,30.4,30.4,0,0,1-9,3,59.88,59.88,0,0,1-10.21.86,58.68,58.68,0,0,1-8.92-.66,34.92,34.92,0,0,1-7.15-1.92,25.58,25.58,0,0,1-5.54-2.95,14.44,14.44,0,0,1-3.3-3.2,13,13,0,0,1-1.82-3.91,19.74,19.74,0,0,1-.74-5.49c0-.66,0-1.66.08-3s.18-3.26.37-5.77l.54-6.6c.14-1.74.29-4.28.46-7.65Z" transform="translate(-140.74 -225.47)"/><path class="cls-2" d="M207.06,550.66q.8-7.27,1.25-13.09t.78-13.51q.33-7.68.5-16.21t.17-13.57q5.16.12,8.34.12t8.05-.18q4.75-.2,9.25-.19a94.1,94.1,0,0,1,9.42.42,23.17,23.17,0,0,1,5.63,1.19,16.5,16.5,0,0,1,4.28,2.21,13.49,13.49,0,0,1,2.89,2.91,12.73,12.73,0,0,1,1.8,3.78,16.64,16.64,0,0,1,.64,4.65,18.37,18.37,0,0,1-.71,5.18,14.76,14.76,0,0,1-2.21,4.55,14.46,14.46,0,0,1-3.8,3.67,32.71,32.71,0,0,1-6.42,3.16l2.15,5.25q.9,2.19,1.94,4.46l5.54,12.1c.24.53.68,1.56,1.32,3.1q-6.81-.07-9.17-.08c-2,0-5.22,0-9.74.08q-.66-2.14-2.4-8c-.46-1.63-.86-2.88-1.19-3.76-.67-2-1.64-4.69-2.94-8.22L228.17,519a23.66,23.66,0,0,0,4.38.41,15.81,15.81,0,0,0,5.47-.9,7.42,7.42,0,0,0,3.72-2.81,7.16,7.16,0,0,0,1.26-4,5.31,5.31,0,0,0-.95-3.12,5.68,5.68,0,0,0-3-2,22.07,22.07,0,0,0-6.3-.66c-1,0-2,0-3,.06s-2.24.08-3.61.1q-.54,8.48-.94,20.66t-.53,23.91c-4.6,0-7.6-.08-9-.08Q213.31,550.58,207.06,550.66Z" transform="translate(-140.74 -225.47)"/><path class="cls-2" d="M281.42,550.66l-1.53-5-10.08-29-7.94-22.3q5.61.08,10,.08c1.79,0,4.59,0,8.42-.08q.95,3.68,1.49,5.58.74,2.47,2.81,9l6.08,19.55q.91,3.06,2.24,8l1.9-4.76L309.2,500c.25-.57.53-1.23.85-2s.81-2,1.5-3.76q6,.08,9.63.08,2.28,0,9-.08-4.21,7.85-9.53,18.34l-14.25,28.25q-2.06,4.14-4.62,9.79-6.94-.07-9.91-.08C290,550.58,286.55,550.61,281.42,550.66Z" transform="translate(-140.74 -225.47)"/><path class="cls-2" d="M322.76,550.66l3.43-5.95,21.36-40.23,2.28-4.5q1-2,2.76-5.7,7.28.08,10.62.08,5.82,0,10.78-.08l6,17.22,12.26,33.13,2.4,6-8.69-.08c-2.31,0-5.72,0-10.21.08q-1.81-6.81-5.23-16h-20.8q-3.58,7.27-7.43,16l-9.42-.08C330.79,550.58,327.42,550.61,322.76,550.66Zm32-28h12.83q-4.79-14.55-5.24-16-2.73,6.06-4.62,9.93Z" transform="translate(-140.74 -225.47)"/><path class="cls-2" d="M398.92,550.66q.79-7.27,1.25-13.09t.78-13.51q.33-7.68.5-16.21t.16-13.57q5.17.12,8.35.12t8.05-.18q4.75-.2,9.25-.19a94.24,94.24,0,0,1,9.42.42,23.17,23.17,0,0,1,5.63,1.19,16.5,16.5,0,0,1,4.28,2.21,13.73,13.73,0,0,1,2.89,2.91,12.73,12.73,0,0,1,1.8,3.78,16.64,16.64,0,0,1,.64,4.65,18.37,18.37,0,0,1-.71,5.18,14.76,14.76,0,0,1-2.21,4.55,14.46,14.46,0,0,1-3.8,3.67,33,33,0,0,1-6.42,3.16l2.15,5.25q.9,2.19,1.94,4.46l5.53,12.1c.25.53.69,1.56,1.33,3.1q-6.81-.07-9.17-.08-3,0-9.74.08-.66-2.14-2.4-8c-.46-1.63-.87-2.88-1.2-3.76-.66-2-1.64-4.69-2.93-8.22L420,519a23.66,23.66,0,0,0,4.38.41,15.81,15.81,0,0,0,5.47-.9,7.42,7.42,0,0,0,3.72-2.81,7.16,7.16,0,0,0,1.26-4,5.31,5.31,0,0,0-.95-3.12,5.68,5.68,0,0,0-3-2,22.07,22.07,0,0,0-6.3-.66c-1,0-2,0-3,.06s-2.24.08-3.62.1q-.53,8.48-.93,20.66t-.53,23.91q-6.92-.07-9-.08C406,550.58,403.08,550.61,398.92,550.66Z" transform="translate(-140.74 -225.47)"/><path class="cls-2" d="M285.44,602.57V558.49H289v44.08Z" transform="translate(-140.74 -225.47)"/><path class="cls-2" d="M304.6,564.7v37.87h-3.54V558.49H304L336.16,597v-38.5h3.54v44.08h-3.41Z" transform="translate(-140.74 -225.47)"/><path class="cls-2" d="M351.77,602.57V558.49h15.55a23.64,23.64,0,0,1,12.34,3,18.75,18.75,0,0,1,7.38,7.94,24.8,24.8,0,0,1,2.46,11.09,24,24,0,0,1-2.72,11.67,19.06,19.06,0,0,1-7.71,7.7,24.11,24.11,0,0,1-11.75,2.73Zm34.12-22.1a21.37,21.37,0,0,0-2.17-9.81,16,16,0,0,0-6.29-6.71,19.76,19.76,0,0,0-10.11-2.42h-12v38h12A19.45,19.45,0,0,0,377.56,597a16.17,16.17,0,0,0,6.23-6.83A21.94,21.94,0,0,0,385.89,580.47Z" transform="translate(-140.74 -225.47)"/><path class="cls-2" d="M398.55,602.57V558.49h3.55v44.08Z" transform="translate(-140.74 -225.47)"/><path class="cls-2" d="M428.8,558.49h3l19.68,44.08h-3.81l-6.25-14.4H419.13l-6.28,14.4h-3.8Zm11.45,27-9.94-22.92-10,22.92Z" transform="translate(-140.74 -225.47)"/></svg>